<mxfile host="app.diagrams.net" modified="2023-08-30T08:08:06.769Z" agent="Mozilla/5.0 (Windows NT 10.0; Win64; x64) AppleWebKit/537.36 (KHTML, like Gecko) Chrome/114.0.0.0 YaBrowser/23.7.3.823 Yowser/2.5 Safari/537.36" etag="xNhTerPGUVavbCdj5e6V" version="21.6.9" type="device" pages="2">
  <diagram name="Задание 1.1" id="edf60f1a-56cd-e834-aa8a-f176f3a09ee4">
    <mxGraphModel dx="2287" dy="1295" grid="1" gridSize="10" guides="1" tooltips="1" connect="1" arrows="1" fold="1" page="1" pageScale="1" pageWidth="1100" pageHeight="850" background="none" math="0" shadow="0">
      <root>
        <mxCell id="0" />
        <mxCell id="1" parent="0" />
        <mxCell id="NXcKFDhUdFTzib9vMsDD-40" value="" style="edgeStyle=orthogonalEdgeStyle;rounded=0;orthogonalLoop=1;jettySize=auto;html=1;" parent="1" source="NXcKFDhUdFTzib9vMsDD-37" target="NXcKFDhUdFTzib9vMsDD-39" edge="1">
          <mxGeometry relative="1" as="geometry" />
        </mxCell>
        <mxCell id="NXcKFDhUdFTzib9vMsDD-37" value="Начало&amp;nbsp;входа в систему по форме авторизации пользователя" style="strokeWidth=2;html=1;shape=mxgraph.flowchart.start_1;whiteSpace=wrap;aspect=fixed;" parent="1" vertex="1">
          <mxGeometry x="459" y="175" width="220" height="132" as="geometry" />
        </mxCell>
        <mxCell id="NXcKFDhUdFTzib9vMsDD-95" style="edgeStyle=orthogonalEdgeStyle;shape=flexArrow;rounded=0;orthogonalLoop=1;jettySize=auto;html=1;exitX=1;exitY=0.5;exitDx=0;exitDy=0;exitPerimeter=0;entryX=0;entryY=0.5;entryDx=0;entryDy=0;" parent="1" source="NXcKFDhUdFTzib9vMsDD-38" target="NXcKFDhUdFTzib9vMsDD-39" edge="1">
          <mxGeometry relative="1" as="geometry">
            <mxPoint x="452" y="391" as="sourcePoint" />
          </mxGeometry>
        </mxCell>
        <mxCell id="NXcKFDhUdFTzib9vMsDD-38" value="ссылка для входа в систему" style="strokeWidth=2;html=1;shape=mxgraph.flowchart.document2;whiteSpace=wrap;size=0.25;" parent="1" vertex="1">
          <mxGeometry x="333" y="361" width="105" height="60" as="geometry" />
        </mxCell>
        <mxCell id="NXcKFDhUdFTzib9vMsDD-80" value="" style="edgeStyle=orthogonalEdgeStyle;rounded=0;orthogonalLoop=1;jettySize=auto;html=1;" parent="1" source="NXcKFDhUdFTzib9vMsDD-39" target="NXcKFDhUdFTzib9vMsDD-47" edge="1">
          <mxGeometry relative="1" as="geometry" />
        </mxCell>
        <mxCell id="NXcKFDhUdFTzib9vMsDD-39" value="Переход по полученной ссылке на экранную форму" style="rounded=1;whiteSpace=wrap;html=1;absoluteArcSize=1;arcSize=14;strokeWidth=2;" parent="1" vertex="1">
          <mxGeometry x="519" y="341" width="100" height="100" as="geometry" />
        </mxCell>
        <mxCell id="NXcKFDhUdFTzib9vMsDD-71" value="" style="edgeStyle=orthogonalEdgeStyle;rounded=0;orthogonalLoop=1;jettySize=auto;html=1;" parent="1" source="NXcKFDhUdFTzib9vMsDD-43" target="NXcKFDhUdFTzib9vMsDD-69" edge="1">
          <mxGeometry relative="1" as="geometry" />
        </mxCell>
        <mxCell id="NXcKFDhUdFTzib9vMsDD-82" style="edgeStyle=orthogonalEdgeStyle;rounded=0;orthogonalLoop=1;jettySize=auto;html=1;" parent="1" source="NXcKFDhUdFTzib9vMsDD-43" edge="1">
          <mxGeometry relative="1" as="geometry">
            <mxPoint x="429" y="781" as="targetPoint" />
          </mxGeometry>
        </mxCell>
        <mxCell id="NXcKFDhUdFTzib9vMsDD-43" value="Ввод логина и пароля" style="rounded=1;whiteSpace=wrap;html=1;absoluteArcSize=1;arcSize=14;strokeWidth=2;" parent="1" vertex="1">
          <mxGeometry x="519" y="731" width="100" height="100" as="geometry" />
        </mxCell>
        <mxCell id="NXcKFDhUdFTzib9vMsDD-48" value="" style="edgeStyle=orthogonalEdgeStyle;rounded=0;orthogonalLoop=1;jettySize=auto;html=1;" parent="1" source="NXcKFDhUdFTzib9vMsDD-47" target="NXcKFDhUdFTzib9vMsDD-43" edge="1">
          <mxGeometry relative="1" as="geometry" />
        </mxCell>
        <mxCell id="NXcKFDhUdFTzib9vMsDD-54" value="Да" style="edgeLabel;html=1;align=center;verticalAlign=middle;resizable=0;points=[];" parent="NXcKFDhUdFTzib9vMsDD-48" vertex="1" connectable="0">
          <mxGeometry x="-0.3235" y="1" relative="1" as="geometry">
            <mxPoint y="1" as="offset" />
          </mxGeometry>
        </mxCell>
        <mxCell id="NXcKFDhUdFTzib9vMsDD-60" value="" style="edgeStyle=orthogonalEdgeStyle;rounded=0;orthogonalLoop=1;jettySize=auto;html=1;" parent="1" target="NXcKFDhUdFTzib9vMsDD-59" edge="1">
          <mxGeometry relative="1" as="geometry">
            <mxPoint x="644" y="555" as="sourcePoint" />
          </mxGeometry>
        </mxCell>
        <mxCell id="NXcKFDhUdFTzib9vMsDD-61" value="Нет" style="edgeLabel;html=1;align=center;verticalAlign=middle;resizable=0;points=[];" parent="NXcKFDhUdFTzib9vMsDD-60" vertex="1" connectable="0">
          <mxGeometry x="-0.1429" y="1" relative="1" as="geometry">
            <mxPoint as="offset" />
          </mxGeometry>
        </mxCell>
        <mxCell id="NXcKFDhUdFTzib9vMsDD-78" style="edgeStyle=orthogonalEdgeStyle;rounded=0;orthogonalLoop=1;jettySize=auto;html=1;entryX=0.602;entryY=-0.031;entryDx=0;entryDy=0;entryPerimeter=0;" parent="1" target="NXcKFDhUdFTzib9vMsDD-75" edge="1">
          <mxGeometry relative="1" as="geometry">
            <mxPoint x="495" y="554" as="sourcePoint" />
            <mxPoint x="420.5999999999999" y="1127.3000000000002" as="targetPoint" />
          </mxGeometry>
        </mxCell>
        <mxCell id="NXcKFDhUdFTzib9vMsDD-81" value="Передумал" style="edgeLabel;html=1;align=center;verticalAlign=middle;resizable=0;points=[];" parent="NXcKFDhUdFTzib9vMsDD-78" vertex="1" connectable="0">
          <mxGeometry x="0.1126" y="-2" relative="1" as="geometry">
            <mxPoint as="offset" />
          </mxGeometry>
        </mxCell>
        <mxCell id="NXcKFDhUdFTzib9vMsDD-47" value="Пользователь имеет и &lt;br&gt;помнит логин и пароль" style="strokeWidth=2;html=1;shape=mxgraph.flowchart.decision;whiteSpace=wrap;aspect=fixed;" parent="1" vertex="1">
          <mxGeometry x="494" y="479" width="150" height="150" as="geometry" />
        </mxCell>
        <mxCell id="NXcKFDhUdFTzib9vMsDD-88" value="" style="edgeStyle=orthogonalEdgeStyle;rounded=0;orthogonalLoop=1;jettySize=auto;html=1;entryX=1;entryY=0.5;entryDx=0;entryDy=0;" parent="1" source="NXcKFDhUdFTzib9vMsDD-49" target="NXcKFDhUdFTzib9vMsDD-75" edge="1">
          <mxGeometry relative="1" as="geometry">
            <mxPoint x="454" y="1171.0000000000005" as="targetPoint" />
          </mxGeometry>
        </mxCell>
        <mxCell id="NXcKFDhUdFTzib9vMsDD-127" value="Нет" style="edgeLabel;html=1;align=center;verticalAlign=middle;resizable=0;points=[];" parent="NXcKFDhUdFTzib9vMsDD-88" vertex="1" connectable="0">
          <mxGeometry x="-0.1515" y="3" relative="1" as="geometry">
            <mxPoint as="offset" />
          </mxGeometry>
        </mxCell>
        <mxCell id="NXcKFDhUdFTzib9vMsDD-49" value="Ожидание ответа системы&lt;br&gt;" style="strokeWidth=2;html=1;shape=mxgraph.flowchart.delay;whiteSpace=wrap;" parent="1" vertex="1">
          <mxGeometry x="519" y="1141" width="100" height="60" as="geometry" />
        </mxCell>
        <mxCell id="NXcKFDhUdFTzib9vMsDD-52" value="" style="edgeStyle=orthogonalEdgeStyle;rounded=0;orthogonalLoop=1;jettySize=auto;html=1;" parent="1" target="NXcKFDhUdFTzib9vMsDD-49" edge="1">
          <mxGeometry relative="1" as="geometry">
            <mxPoint x="709.6999999999998" y="1170" as="sourcePoint" />
          </mxGeometry>
        </mxCell>
        <mxCell id="NXcKFDhUdFTzib9vMsDD-58" value="Использование чекбокса&lt;br style=&quot;border-color: var(--border-color);&quot;&gt;&quot;Оставаться в системе&quot;&lt;br style=&quot;border-color: var(--border-color);&quot;&gt;" style="rounded=1;whiteSpace=wrap;html=1;absoluteArcSize=1;arcSize=14;strokeWidth=2;" parent="1" vertex="1">
          <mxGeometry x="664" y="1120" width="100" height="100" as="geometry" />
        </mxCell>
        <mxCell id="NXcKFDhUdFTzib9vMsDD-63" value="" style="edgeStyle=orthogonalEdgeStyle;rounded=0;orthogonalLoop=1;jettySize=auto;html=1;" parent="1" source="NXcKFDhUdFTzib9vMsDD-59" edge="1">
          <mxGeometry relative="1" as="geometry">
            <mxPoint x="784" y="473" as="targetPoint" />
          </mxGeometry>
        </mxCell>
        <mxCell id="NXcKFDhUdFTzib9vMsDD-64" value="Не зарегистрирован" style="edgeLabel;html=1;align=center;verticalAlign=middle;resizable=0;points=[];" parent="NXcKFDhUdFTzib9vMsDD-63" vertex="1" connectable="0">
          <mxGeometry x="-0.08" y="-2" relative="1" as="geometry">
            <mxPoint as="offset" />
          </mxGeometry>
        </mxCell>
        <mxCell id="NXcKFDhUdFTzib9vMsDD-67" value="" style="edgeStyle=orthogonalEdgeStyle;rounded=0;orthogonalLoop=1;jettySize=auto;html=1;" parent="1" source="NXcKFDhUdFTzib9vMsDD-59" edge="1">
          <mxGeometry relative="1" as="geometry">
            <mxPoint x="784" y="637" as="targetPoint" />
          </mxGeometry>
        </mxCell>
        <mxCell id="NXcKFDhUdFTzib9vMsDD-68" value="Не помню учетные данные" style="edgeLabel;html=1;align=center;verticalAlign=middle;resizable=0;points=[];" parent="NXcKFDhUdFTzib9vMsDD-67" vertex="1" connectable="0">
          <mxGeometry x="-0.2766" y="3" relative="1" as="geometry">
            <mxPoint as="offset" />
          </mxGeometry>
        </mxCell>
        <mxCell id="NXcKFDhUdFTzib9vMsDD-59" value="" style="verticalLabelPosition=bottom;verticalAlign=top;html=1;shape=mxgraph.flowchart.summing_function;" parent="1" vertex="1">
          <mxGeometry x="749" y="520" width="70" height="70" as="geometry" />
        </mxCell>
        <mxCell id="NXcKFDhUdFTzib9vMsDD-62" value="Использование ссылки&lt;br&gt;&amp;nbsp;&quot;Зарегистрироваться&quot;" style="rounded=1;whiteSpace=wrap;html=1;absoluteArcSize=1;arcSize=14;strokeWidth=2;" parent="1" vertex="1">
          <mxGeometry x="711" y="406" width="146" height="66" as="geometry" />
        </mxCell>
        <mxCell id="NXcKFDhUdFTzib9vMsDD-66" value="Использование ссылки&lt;br&gt;&amp;nbsp;&quot;Забыли пароль&quot;" style="rounded=1;whiteSpace=wrap;html=1;absoluteArcSize=1;arcSize=14;strokeWidth=2;" parent="1" vertex="1">
          <mxGeometry x="711" y="636" width="146" height="66" as="geometry" />
        </mxCell>
        <mxCell id="NXcKFDhUdFTzib9vMsDD-72" value="" style="edgeStyle=orthogonalEdgeStyle;rounded=0;orthogonalLoop=1;jettySize=auto;html=1;exitX=0.5;exitY=1;exitDx=0;exitDy=0;" parent="1" source="NXcKFDhUdFTzib9vMsDD-77" target="NXcKFDhUdFTzib9vMsDD-49" edge="1">
          <mxGeometry relative="1" as="geometry">
            <mxPoint x="569" y="1093" as="sourcePoint" />
          </mxGeometry>
        </mxCell>
        <mxCell id="NXcKFDhUdFTzib9vMsDD-87" value="" style="edgeStyle=orthogonalEdgeStyle;rounded=0;orthogonalLoop=1;jettySize=auto;html=1;" parent="1" source="NXcKFDhUdFTzib9vMsDD-69" target="NXcKFDhUdFTzib9vMsDD-77" edge="1">
          <mxGeometry relative="1" as="geometry" />
        </mxCell>
        <mxCell id="NXcKFDhUdFTzib9vMsDD-100" value="" style="edgeStyle=orthogonalEdgeStyle;shape=flexArrow;rounded=0;orthogonalLoop=1;jettySize=auto;html=1;exitX=1;exitY=0.5;exitDx=0;exitDy=0;" parent="1" source="NXcKFDhUdFTzib9vMsDD-43" target="NXcKFDhUdFTzib9vMsDD-97" edge="1">
          <mxGeometry relative="1" as="geometry" />
        </mxCell>
        <mxCell id="NXcKFDhUdFTzib9vMsDD-69" value="Использование чекбокса &quot;Я не робот&quot;" style="rounded=1;whiteSpace=wrap;html=1;absoluteArcSize=1;arcSize=14;strokeWidth=2;" parent="1" vertex="1">
          <mxGeometry x="519" y="866" width="100" height="70" as="geometry" />
        </mxCell>
        <mxCell id="NXcKFDhUdFTzib9vMsDD-75" value="Использование&lt;br&gt;&amp;nbsp;кнопки &quot;Отменить&quot;&lt;br style=&quot;border-color: var(--border-color);&quot;&gt;" style="rounded=1;whiteSpace=wrap;html=1;absoluteArcSize=1;arcSize=14;strokeWidth=2;" parent="1" vertex="1">
          <mxGeometry x="370" y="1121.5" width="100" height="100" as="geometry" />
        </mxCell>
        <mxCell id="NXcKFDhUdFTzib9vMsDD-77" value="Использование кнопки &quot;Войти&quot;" style="rounded=1;whiteSpace=wrap;html=1;absoluteArcSize=1;arcSize=14;strokeWidth=2;" parent="1" vertex="1">
          <mxGeometry x="519" y="987" width="100" height="70" as="geometry" />
        </mxCell>
        <mxCell id="NXcKFDhUdFTzib9vMsDD-85" style="edgeStyle=orthogonalEdgeStyle;rounded=0;orthogonalLoop=1;jettySize=auto;html=1;" parent="1" edge="1">
          <mxGeometry relative="1" as="geometry">
            <mxPoint x="429" y="1021.5" as="targetPoint" />
            <mxPoint x="519" y="1021.5" as="sourcePoint" />
          </mxGeometry>
        </mxCell>
        <mxCell id="NXcKFDhUdFTzib9vMsDD-86" style="edgeStyle=orthogonalEdgeStyle;rounded=0;orthogonalLoop=1;jettySize=auto;html=1;" parent="1" edge="1">
          <mxGeometry relative="1" as="geometry">
            <mxPoint x="429" y="896" as="targetPoint" />
            <mxPoint x="519" y="896" as="sourcePoint" />
          </mxGeometry>
        </mxCell>
        <mxCell id="NXcKFDhUdFTzib9vMsDD-103" style="edgeStyle=orthogonalEdgeStyle;shape=flexArrow;rounded=0;orthogonalLoop=1;jettySize=auto;html=1;exitX=1;exitY=0.5;exitDx=0;exitDy=0;exitPerimeter=0;entryX=0.5;entryY=0;entryDx=0;entryDy=0;entryPerimeter=0;" parent="1" source="NXcKFDhUdFTzib9vMsDD-97" target="NXcKFDhUdFTzib9vMsDD-99" edge="1">
          <mxGeometry relative="1" as="geometry" />
        </mxCell>
        <mxCell id="NXcKFDhUdFTzib9vMsDD-97" value="Введенный логин&lt;br style=&quot;border-color: var(--border-color);&quot;&gt;&amp;nbsp;и пароль" style="strokeWidth=2;html=1;shape=mxgraph.flowchart.direct_data;whiteSpace=wrap;" parent="1" vertex="1">
          <mxGeometry x="679" y="750" width="180" height="63" as="geometry" />
        </mxCell>
        <mxCell id="NXcKFDhUdFTzib9vMsDD-106" value="" style="edgeStyle=orthogonalEdgeStyle;shape=flexArrow;rounded=0;orthogonalLoop=1;jettySize=auto;html=1;width=12;endSize=8.33;" parent="1" source="NXcKFDhUdFTzib9vMsDD-99" target="NXcKFDhUdFTzib9vMsDD-105" edge="1">
          <mxGeometry relative="1" as="geometry" />
        </mxCell>
        <mxCell id="NXcKFDhUdFTzib9vMsDD-99" value="Проверка учетных&lt;br style=&quot;border-color: var(--border-color);&quot;&gt;&lt;span style=&quot;border-color: var(--border-color);&quot;&gt;данных системой&lt;/span&gt;" style="verticalLabelPosition=bottom;verticalAlign=top;html=1;shape=mxgraph.flowchart.collate;" parent="1" vertex="1">
          <mxGeometry x="884" y="896" width="95" height="90" as="geometry" />
        </mxCell>
        <mxCell id="NXcKFDhUdFTzib9vMsDD-105" value="Введенные учетные данные верны" style="strokeWidth=2;html=1;shape=mxgraph.flowchart.decision;whiteSpace=wrap;" parent="1" vertex="1">
          <mxGeometry x="878" y="1120" width="107" height="109" as="geometry" />
        </mxCell>
        <mxCell id="NXcKFDhUdFTzib9vMsDD-109" value="" style="verticalLabelPosition=bottom;verticalAlign=top;html=1;shape=mxgraph.flowchart.or;" parent="1" vertex="1">
          <mxGeometry x="678" y="1244" width="70" height="70" as="geometry" />
        </mxCell>
        <mxCell id="NXcKFDhUdFTzib9vMsDD-112" value="" style="edgeStyle=orthogonalEdgeStyle;rounded=0;orthogonalLoop=1;jettySize=auto;html=1;exitX=0.5;exitY=1;exitDx=0;exitDy=0;entryX=0;entryY=0.5;entryDx=0;entryDy=0;entryPerimeter=0;exitPerimeter=0;" parent="1" source="NXcKFDhUdFTzib9vMsDD-49" target="NXcKFDhUdFTzib9vMsDD-109" edge="1">
          <mxGeometry relative="1" as="geometry">
            <mxPoint x="568.5" y="1206" as="sourcePoint" />
            <mxPoint x="568.5" y="1290" as="targetPoint" />
          </mxGeometry>
        </mxCell>
        <mxCell id="NXcKFDhUdFTzib9vMsDD-126" value="Да" style="edgeLabel;html=1;align=center;verticalAlign=middle;resizable=0;points=[];" parent="NXcKFDhUdFTzib9vMsDD-112" vertex="1" connectable="0">
          <mxGeometry x="-0.508" y="-2" relative="1" as="geometry">
            <mxPoint as="offset" />
          </mxGeometry>
        </mxCell>
        <mxCell id="NXcKFDhUdFTzib9vMsDD-113" value="" style="edgeStyle=orthogonalEdgeStyle;rounded=0;orthogonalLoop=1;jettySize=auto;html=1;exitX=0.5;exitY=1;exitDx=0;exitDy=0;entryX=1;entryY=0.5;entryDx=0;entryDy=0;entryPerimeter=0;exitPerimeter=0;" parent="1" source="NXcKFDhUdFTzib9vMsDD-105" target="NXcKFDhUdFTzib9vMsDD-109" edge="1">
          <mxGeometry relative="1" as="geometry">
            <mxPoint x="579" y="1211" as="sourcePoint" />
            <mxPoint x="756" y="1326" as="targetPoint" />
          </mxGeometry>
        </mxCell>
        <mxCell id="NXcKFDhUdFTzib9vMsDD-118" value="Да" style="edgeLabel;html=1;align=center;verticalAlign=middle;resizable=0;points=[];" parent="NXcKFDhUdFTzib9vMsDD-113" vertex="1" connectable="0">
          <mxGeometry x="-0.7449" y="1" relative="1" as="geometry">
            <mxPoint as="offset" />
          </mxGeometry>
        </mxCell>
        <mxCell id="NXcKFDhUdFTzib9vMsDD-115" value="Конец входа в систему по форме&lt;br&gt;&amp;nbsp;авторизации пользователя" style="strokeWidth=2;html=1;shape=mxgraph.flowchart.start_1;whiteSpace=wrap;aspect=fixed;" parent="1" vertex="1">
          <mxGeometry x="608" y="1356" width="210" height="126" as="geometry" />
        </mxCell>
        <mxCell id="NXcKFDhUdFTzib9vMsDD-117" value="" style="edgeStyle=orthogonalEdgeStyle;rounded=0;orthogonalLoop=1;jettySize=auto;html=1;exitX=0.5;exitY=1;exitDx=0;exitDy=0;entryX=0.5;entryY=0;entryDx=0;entryDy=0;entryPerimeter=0;exitPerimeter=0;" parent="1" source="NXcKFDhUdFTzib9vMsDD-109" target="NXcKFDhUdFTzib9vMsDD-115" edge="1">
          <mxGeometry relative="1" as="geometry">
            <mxPoint x="713.5" y="1330" as="sourcePoint" />
            <mxPoint x="713.5" y="1414" as="targetPoint" />
          </mxGeometry>
        </mxCell>
        <mxCell id="NXcKFDhUdFTzib9vMsDD-121" value="" style="edgeStyle=orthogonalEdgeStyle;rounded=0;orthogonalLoop=1;jettySize=auto;html=1;exitX=1;exitY=0.5;exitDx=0;exitDy=0;entryX=1;entryY=0.5;entryDx=0;entryDy=0;entryPerimeter=0;exitPerimeter=0;" parent="1" source="NXcKFDhUdFTzib9vMsDD-105" target="NXcKFDhUdFTzib9vMsDD-59" edge="1">
          <mxGeometry relative="1" as="geometry">
            <mxPoint x="1205" y="1187" as="sourcePoint" />
            <mxPoint x="1039" y="566" as="targetPoint" />
          </mxGeometry>
        </mxCell>
        <mxCell id="NXcKFDhUdFTzib9vMsDD-122" value="Нет" style="edgeLabel;html=1;align=center;verticalAlign=middle;resizable=0;points=[];" parent="NXcKFDhUdFTzib9vMsDD-121" vertex="1" connectable="0">
          <mxGeometry x="-0.9246" y="-1" relative="1" as="geometry">
            <mxPoint y="1" as="offset" />
          </mxGeometry>
        </mxCell>
      </root>
    </mxGraphModel>
  </diagram>
  <diagram id="Fajf6Du-a-zhBee5hGhU" name="Задание 1.2">
    <mxGraphModel dx="2787" dy="3448" grid="1" gridSize="10" guides="1" tooltips="1" connect="1" arrows="1" fold="1" page="1" pageScale="1" pageWidth="827" pageHeight="1169" math="0" shadow="0">
      <root>
        <mxCell id="0" />
        <mxCell id="1" parent="0" />
        <mxCell id="0-b03ZIYhy6DXenAKKUn-5" value="" style="edgeStyle=orthogonalEdgeStyle;rounded=0;orthogonalLoop=1;jettySize=auto;html=1;" parent="1" source="ahKrlXndqeYSALNlwnWM-1" target="0-b03ZIYhy6DXenAKKUn-4" edge="1">
          <mxGeometry relative="1" as="geometry">
            <Array as="points">
              <mxPoint x="-460" y="-2200" />
              <mxPoint x="-460" y="-2200" />
            </Array>
          </mxGeometry>
        </mxCell>
        <mxCell id="ahKrlXndqeYSALNlwnWM-1" value="&amp;nbsp;Начало создания&lt;br&gt;&amp;nbsp;события для календаря событий" style="strokeWidth=2;html=1;shape=mxgraph.flowchart.start_1;whiteSpace=wrap;" parent="1" vertex="1">
          <mxGeometry x="-550" y="-2320" width="180" height="80" as="geometry" />
        </mxCell>
        <mxCell id="ahKrlXndqeYSALNlwnWM-2" value="&amp;nbsp;Конец создания&lt;br&gt;&amp;nbsp;события для календаря событий" style="strokeWidth=2;html=1;shape=mxgraph.flowchart.start_1;whiteSpace=wrap;" parent="1" vertex="1">
          <mxGeometry x="-327" y="-647" width="180" height="80" as="geometry" />
        </mxCell>
        <mxCell id="0-b03ZIYhy6DXenAKKUn-10" style="edgeStyle=orthogonalEdgeStyle;rounded=0;orthogonalLoop=1;jettySize=auto;html=1;exitX=0.93;exitY=0.5;exitDx=0;exitDy=0;exitPerimeter=0;" parent="1" source="0-b03ZIYhy6DXenAKKUn-1" edge="1">
          <mxGeometry relative="1" as="geometry">
            <mxPoint x="-460" y="-2189.684210526316" as="targetPoint" />
          </mxGeometry>
        </mxCell>
        <mxCell id="0-b03ZIYhy6DXenAKKUn-1" value="созданные категории событий&amp;nbsp;" style="strokeWidth=2;html=1;shape=mxgraph.flowchart.stored_data;whiteSpace=wrap;" parent="1" vertex="1">
          <mxGeometry x="-710" y="-2220" width="100" height="60" as="geometry" />
        </mxCell>
        <mxCell id="0-b03ZIYhy6DXenAKKUn-12" value="" style="edgeStyle=orthogonalEdgeStyle;rounded=0;orthogonalLoop=1;jettySize=auto;html=1;" parent="1" source="0-b03ZIYhy6DXenAKKUn-4" edge="1">
          <mxGeometry relative="1" as="geometry">
            <mxPoint x="-460" y="-2010" as="targetPoint" />
          </mxGeometry>
        </mxCell>
        <mxCell id="0-b03ZIYhy6DXenAKKUn-4" value="&amp;nbsp;Ввод наименования события через текстовое поле" style="rounded=1;whiteSpace=wrap;html=1;strokeWidth=2;" parent="1" vertex="1">
          <mxGeometry x="-520" y="-2150" width="120" height="60" as="geometry" />
        </mxCell>
        <mxCell id="0-b03ZIYhy6DXenAKKUn-24" value="" style="edgeStyle=orthogonalEdgeStyle;rounded=0;orthogonalLoop=1;jettySize=auto;html=1;" parent="1" source="0-b03ZIYhy6DXenAKKUn-14" target="0-b03ZIYhy6DXenAKKUn-23" edge="1">
          <mxGeometry relative="1" as="geometry" />
        </mxCell>
        <mxCell id="0-b03ZIYhy6DXenAKKUn-14" value="Выбор участников" style="verticalLabelPosition=bottom;verticalAlign=top;html=1;shape=mxgraph.flowchart.summing_function;" parent="1" vertex="1">
          <mxGeometry x="-495" y="-2037" width="70" height="70" as="geometry" />
        </mxCell>
        <mxCell id="0-b03ZIYhy6DXenAKKUn-20" value="" style="edgeStyle=orthogonalEdgeStyle;rounded=0;orthogonalLoop=1;jettySize=auto;html=1;" parent="1" target="0-b03ZIYhy6DXenAKKUn-14" edge="1">
          <mxGeometry relative="1" as="geometry">
            <mxPoint x="-580" y="-2001.5263157894735" as="sourcePoint" />
          </mxGeometry>
        </mxCell>
        <mxCell id="0-b03ZIYhy6DXenAKKUn-15" value="Выбор из конечного списка одного или нескольких подразделений (использование перечня подразделений из БД)" style="rounded=1;whiteSpace=wrap;html=1;strokeWidth=2;" parent="1" vertex="1">
          <mxGeometry x="-700" y="-2068" width="120" height="135" as="geometry" />
        </mxCell>
        <mxCell id="0-b03ZIYhy6DXenAKKUn-22" value="" style="edgeStyle=orthogonalEdgeStyle;rounded=0;orthogonalLoop=1;jettySize=auto;html=1;" parent="1" source="0-b03ZIYhy6DXenAKKUn-16" target="0-b03ZIYhy6DXenAKKUn-14" edge="1">
          <mxGeometry relative="1" as="geometry" />
        </mxCell>
        <mxCell id="0-b03ZIYhy6DXenAKKUn-16" value="Выбор из конечного списка всех сотрудников" style="rounded=1;whiteSpace=wrap;html=1;strokeWidth=2;" parent="1" vertex="1">
          <mxGeometry x="-350" y="-2032" width="120" height="60" as="geometry" />
        </mxCell>
        <mxCell id="0-b03ZIYhy6DXenAKKUn-21" value="" style="edgeStyle=orthogonalEdgeStyle;rounded=0;orthogonalLoop=1;jettySize=auto;html=1;" parent="1" source="0-b03ZIYhy6DXenAKKUn-17" edge="1">
          <mxGeometry relative="1" as="geometry">
            <mxPoint x="-700" y="-2001.5263157894735" as="targetPoint" />
          </mxGeometry>
        </mxCell>
        <mxCell id="0-b03ZIYhy6DXenAKKUn-17" value="БД сотрудников" style="strokeWidth=2;html=1;shape=mxgraph.flowchart.database;whiteSpace=wrap;" parent="1" vertex="1">
          <mxGeometry x="-800" y="-2046" width="70" height="90" as="geometry" />
        </mxCell>
        <mxCell id="0-b03ZIYhy6DXenAKKUn-26" value="" style="edgeStyle=orthogonalEdgeStyle;rounded=0;orthogonalLoop=1;jettySize=auto;html=1;" parent="1" source="0-b03ZIYhy6DXenAKKUn-23" target="0-b03ZIYhy6DXenAKKUn-25" edge="1">
          <mxGeometry relative="1" as="geometry" />
        </mxCell>
        <mxCell id="0-b03ZIYhy6DXenAKKUn-23" value="Выбор категории события из конечного списка" style="rounded=1;whiteSpace=wrap;html=1;verticalAlign=top;" parent="1" vertex="1">
          <mxGeometry x="-520" y="-1916" width="120" height="60" as="geometry" />
        </mxCell>
        <mxCell id="0-b03ZIYhy6DXenAKKUn-28" value="" style="edgeStyle=orthogonalEdgeStyle;rounded=0;orthogonalLoop=1;jettySize=auto;html=1;" parent="1" source="0-b03ZIYhy6DXenAKKUn-25" target="0-b03ZIYhy6DXenAKKUn-27" edge="1">
          <mxGeometry relative="1" as="geometry" />
        </mxCell>
        <mxCell id="0-b03ZIYhy6DXenAKKUn-25" value="Выбор часового пояса из конечного списка." style="whiteSpace=wrap;html=1;verticalAlign=top;rounded=1;" parent="1" vertex="1">
          <mxGeometry x="-520" y="-1830" width="120" height="60" as="geometry" />
        </mxCell>
        <mxCell id="0-b03ZIYhy6DXenAKKUn-30" value="" style="edgeStyle=orthogonalEdgeStyle;rounded=0;orthogonalLoop=1;jettySize=auto;html=1;" parent="1" source="0-b03ZIYhy6DXenAKKUn-27" target="0-b03ZIYhy6DXenAKKUn-29" edge="1">
          <mxGeometry relative="1" as="geometry" />
        </mxCell>
        <mxCell id="0-b03ZIYhy6DXenAKKUn-27" value="Ввод ссылки или места проведения через текстовое поле" style="whiteSpace=wrap;html=1;verticalAlign=top;rounded=1;" parent="1" vertex="1">
          <mxGeometry x="-520" y="-1740" width="120" height="60" as="geometry" />
        </mxCell>
        <mxCell id="0-b03ZIYhy6DXenAKKUn-32" value="" style="edgeStyle=orthogonalEdgeStyle;rounded=0;orthogonalLoop=1;jettySize=auto;html=1;" parent="1" source="0-b03ZIYhy6DXenAKKUn-29" target="0-b03ZIYhy6DXenAKKUn-31" edge="1">
          <mxGeometry relative="1" as="geometry" />
        </mxCell>
        <mxCell id="0-b03ZIYhy6DXenAKKUn-29" value="&amp;nbsp;Ввод описания события через многострочное текстовое поле." style="whiteSpace=wrap;html=1;verticalAlign=top;rounded=1;" parent="1" vertex="1">
          <mxGeometry x="-535" y="-1650" width="150" height="60" as="geometry" />
        </mxCell>
        <mxCell id="0-b03ZIYhy6DXenAKKUn-34" value="" style="edgeStyle=orthogonalEdgeStyle;rounded=0;orthogonalLoop=1;jettySize=auto;html=1;" parent="1" source="0-b03ZIYhy6DXenAKKUn-31" target="0-b03ZIYhy6DXenAKKUn-33" edge="1">
          <mxGeometry relative="1" as="geometry" />
        </mxCell>
        <mxCell id="0-b03ZIYhy6DXenAKKUn-31" value="Выбор даты и времени события" style="whiteSpace=wrap;html=1;verticalAlign=top;rounded=1;" parent="1" vertex="1">
          <mxGeometry x="-520" y="-1560" width="120" height="60" as="geometry" />
        </mxCell>
        <mxCell id="0-b03ZIYhy6DXenAKKUn-36" value="" style="edgeStyle=orthogonalEdgeStyle;rounded=0;orthogonalLoop=1;jettySize=auto;html=1;" parent="1" source="0-b03ZIYhy6DXenAKKUn-33" target="0-b03ZIYhy6DXenAKKUn-35" edge="1">
          <mxGeometry relative="1" as="geometry" />
        </mxCell>
        <mxCell id="0-b03ZIYhy6DXenAKKUn-33" value="Установка или снятие флажка &quot;Весь день&quot;" style="whiteSpace=wrap;html=1;verticalAlign=top;rounded=1;" parent="1" vertex="1">
          <mxGeometry x="-520" y="-1478" width="120" height="60" as="geometry" />
        </mxCell>
        <mxCell id="0-b03ZIYhy6DXenAKKUn-38" value="" style="edgeStyle=orthogonalEdgeStyle;rounded=0;orthogonalLoop=1;jettySize=auto;html=1;" parent="1" source="0-b03ZIYhy6DXenAKKUn-35" target="0-b03ZIYhy6DXenAKKUn-37" edge="1">
          <mxGeometry relative="1" as="geometry" />
        </mxCell>
        <mxCell id="0-b03ZIYhy6DXenAKKUn-35" value="Выбор периода повторения из конечного списка (включая опцию &quot;выбрать&quot;)" style="whiteSpace=wrap;html=1;verticalAlign=top;rounded=1;" parent="1" vertex="1">
          <mxGeometry x="-580" y="-1400" width="240" height="60" as="geometry" />
        </mxCell>
        <mxCell id="0-b03ZIYhy6DXenAKKUn-40" value="" style="edgeStyle=orthogonalEdgeStyle;rounded=0;orthogonalLoop=1;jettySize=auto;html=1;" parent="1" source="0-b03ZIYhy6DXenAKKUn-37" target="0-b03ZIYhy6DXenAKKUn-39" edge="1">
          <mxGeometry relative="1" as="geometry" />
        </mxCell>
        <mxCell id="0-b03ZIYhy6DXenAKKUn-37" value="Установка или снятие флажка &quot;Уведомить о событии&quot;" style="whiteSpace=wrap;html=1;verticalAlign=top;rounded=1;" parent="1" vertex="1">
          <mxGeometry x="-530" y="-1320" width="140" height="60" as="geometry" />
        </mxCell>
        <mxCell id="0-b03ZIYhy6DXenAKKUn-42" value="" style="edgeStyle=orthogonalEdgeStyle;rounded=0;orthogonalLoop=1;jettySize=auto;html=1;" parent="1" source="0-b03ZIYhy6DXenAKKUn-39" target="0-b03ZIYhy6DXenAKKUn-41" edge="1">
          <mxGeometry relative="1" as="geometry" />
        </mxCell>
        <mxCell id="0-b03ZIYhy6DXenAKKUn-39" value="Отправка уведомления всем сотрудникам компании при включенном флажке" style="whiteSpace=wrap;html=1;verticalAlign=top;rounded=1;" parent="1" vertex="1">
          <mxGeometry x="-574" y="-1240" width="230" height="60" as="geometry" />
        </mxCell>
        <mxCell id="0-b03ZIYhy6DXenAKKUn-45" value="" style="edgeStyle=orthogonalEdgeStyle;rounded=0;orthogonalLoop=1;jettySize=auto;html=1;entryX=0.5;entryY=0;entryDx=0;entryDy=0;entryPerimeter=0;" parent="1" source="0-b03ZIYhy6DXenAKKUn-41" edge="1" target="0-b03ZIYhy6DXenAKKUn-47">
          <mxGeometry relative="1" as="geometry">
            <mxPoint x="-460" y="-1038" as="targetPoint" />
          </mxGeometry>
        </mxCell>
        <mxCell id="0-b03ZIYhy6DXenAKKUn-41" value="Проверка наличия заполнения всех обязательных полей" style="whiteSpace=wrap;html=1;verticalAlign=top;rounded=1;" parent="1" vertex="1">
          <mxGeometry x="-520" y="-1138" width="120" height="60" as="geometry" />
        </mxCell>
        <mxCell id="0-b03ZIYhy6DXenAKKUn-50" value="" style="edgeStyle=orthogonalEdgeStyle;rounded=0;orthogonalLoop=1;jettySize=auto;html=1;entryX=1;entryY=0.5;entryDx=0;entryDy=0;entryPerimeter=0;exitX=0;exitY=0.5;exitDx=0;exitDy=0;exitPerimeter=0;" parent="1" source="0-b03ZIYhy6DXenAKKUn-47" target="0-b03ZIYhy6DXenAKKUn-51" edge="1">
          <mxGeometry relative="1" as="geometry">
            <mxPoint x="-709" y="-972.5" as="targetPoint" />
          </mxGeometry>
        </mxCell>
        <mxCell id="0-b03ZIYhy6DXenAKKUn-52" value="Нет" style="edgeLabel;html=1;align=center;verticalAlign=middle;resizable=0;points=[];" parent="0-b03ZIYhy6DXenAKKUn-50" vertex="1" connectable="0">
          <mxGeometry x="0.0751" y="-1" relative="1" as="geometry">
            <mxPoint as="offset" />
          </mxGeometry>
        </mxCell>
        <mxCell id="0-b03ZIYhy6DXenAKKUn-57" value="" style="edgeStyle=orthogonalEdgeStyle;rounded=0;orthogonalLoop=1;jettySize=auto;html=1;" parent="1" source="0-b03ZIYhy6DXenAKKUn-47" target="0-b03ZIYhy6DXenAKKUn-56" edge="1">
          <mxGeometry relative="1" as="geometry" />
        </mxCell>
        <mxCell id="0-b03ZIYhy6DXenAKKUn-58" value="Да" style="edgeLabel;html=1;align=center;verticalAlign=middle;resizable=0;points=[];" parent="0-b03ZIYhy6DXenAKKUn-57" vertex="1" connectable="0">
          <mxGeometry x="-0.4428" y="-1" relative="1" as="geometry">
            <mxPoint as="offset" />
          </mxGeometry>
        </mxCell>
        <mxCell id="0-b03ZIYhy6DXenAKKUn-47" value="Все обязательные &lt;br&gt;поля заполнены?" style="strokeWidth=2;html=1;shape=mxgraph.flowchart.decision;whiteSpace=wrap;" parent="1" vertex="1">
          <mxGeometry x="-574" y="-1005" width="230" height="105" as="geometry" />
        </mxCell>
        <mxCell id="0-b03ZIYhy6DXenAKKUn-54" value="" style="edgeStyle=orthogonalEdgeStyle;rounded=0;orthogonalLoop=1;jettySize=auto;html=1;" parent="1" source="0-b03ZIYhy6DXenAKKUn-51" target="0-b03ZIYhy6DXenAKKUn-53" edge="1">
          <mxGeometry relative="1" as="geometry" />
        </mxCell>
        <mxCell id="0-b03ZIYhy6DXenAKKUn-51" value="Отображение ошибки с информацией &quot;не заполнены обязательные поля&quot;" style="strokeWidth=2;html=1;shape=mxgraph.flowchart.display;whiteSpace=wrap;" parent="1" vertex="1">
          <mxGeometry x="-807" y="-999" width="180" height="84" as="geometry" />
        </mxCell>
        <mxCell id="0-b03ZIYhy6DXenAKKUn-55" value="" style="edgeStyle=orthogonalEdgeStyle;rounded=0;orthogonalLoop=1;jettySize=auto;html=1;" parent="1" source="0-b03ZIYhy6DXenAKKUn-53" target="0-b03ZIYhy6DXenAKKUn-41" edge="1">
          <mxGeometry relative="1" as="geometry" />
        </mxCell>
        <mxCell id="0-b03ZIYhy6DXenAKKUn-53" value="Выделение красным полей, которые необходимо заполнить." style="strokeWidth=2;html=1;shape=mxgraph.flowchart.display;whiteSpace=wrap;" parent="1" vertex="1">
          <mxGeometry x="-807" y="-1151.25" width="180" height="86.5" as="geometry" />
        </mxCell>
        <mxCell id="0-b03ZIYhy6DXenAKKUn-60" value="" style="edgeStyle=orthogonalEdgeStyle;rounded=0;orthogonalLoop=1;jettySize=auto;html=1;" parent="1" source="0-b03ZIYhy6DXenAKKUn-56" target="0-b03ZIYhy6DXenAKKUn-59" edge="1">
          <mxGeometry relative="1" as="geometry" />
        </mxCell>
        <mxCell id="0-b03ZIYhy6DXenAKKUn-56" value="Инициировать сохранение изменений" style="whiteSpace=wrap;html=1;verticalAlign=top;rounded=1;" parent="1" vertex="1">
          <mxGeometry x="-297" y="-983" width="120" height="60" as="geometry" />
        </mxCell>
        <mxCell id="0-b03ZIYhy6DXenAKKUn-62" value="" style="edgeStyle=orthogonalEdgeStyle;rounded=0;orthogonalLoop=1;jettySize=auto;html=1;" parent="1" source="0-b03ZIYhy6DXenAKKUn-59" target="0-b03ZIYhy6DXenAKKUn-61" edge="1">
          <mxGeometry relative="1" as="geometry" />
        </mxCell>
        <mxCell id="0-b03ZIYhy6DXenAKKUn-59" value="Получить от системы ответ о сохранении изменений" style="whiteSpace=wrap;html=1;verticalAlign=top;rounded=1;" parent="1" vertex="1">
          <mxGeometry x="-297" y="-891" width="120" height="71" as="geometry" />
        </mxCell>
        <mxCell id="0-b03ZIYhy6DXenAKKUn-63" value="" style="edgeStyle=orthogonalEdgeStyle;rounded=0;orthogonalLoop=1;jettySize=auto;html=1;" parent="1" source="0-b03ZIYhy6DXenAKKUn-61" target="ahKrlXndqeYSALNlwnWM-2" edge="1">
          <mxGeometry relative="1" as="geometry" />
        </mxCell>
        <mxCell id="0-b03ZIYhy6DXenAKKUn-61" value="Проверить отображение созданного события в общем перечне созданных событий" style="whiteSpace=wrap;html=1;verticalAlign=top;rounded=1;" parent="1" vertex="1">
          <mxGeometry x="-297" y="-790" width="120" height="90" as="geometry" />
        </mxCell>
      </root>
    </mxGraphModel>
  </diagram>
</mxfile>
